<svg width="166" height="117" viewBox="0 0 166 117" fill="none" xmlns="http://www.w3.org/2000/svg">
<g filter="url(#filter0_d_178_70)">
<circle cx="58.5" cy="51.5" r="17.5" fill="#172176"/>
</g>
<path d="M157.091 49.408C157.144 48.3413 157.518 47.52 158.211 46.944C158.915 46.3573 159.838 46.064 160.979 46.064C161.758 46.064 162.424 46.2027 162.979 46.48C163.534 46.7467 163.95 47.1147 164.227 47.584C164.515 48.0427 164.659 48.5653 164.659 49.152C164.659 49.824 164.483 50.3947 164.131 50.864C163.79 51.3227 163.379 51.632 162.899 51.792V51.856C163.518 52.048 163.998 52.3893 164.339 52.88C164.691 53.3707 164.867 54 164.867 54.768C164.867 55.408 164.718 55.9787 164.419 56.48C164.131 56.9813 163.699 57.376 163.123 57.664C162.558 57.9413 161.875 58.08 161.075 58.08C159.87 58.08 158.888 57.776 158.131 57.168C157.374 56.56 156.974 55.664 156.931 54.48H159.107C159.128 55.0027 159.304 55.424 159.635 55.744C159.976 56.0533 160.44 56.208 161.027 56.208C161.571 56.208 161.987 56.0587 162.275 55.76C162.574 55.4507 162.723 55.056 162.723 54.576C162.723 53.936 162.52 53.4773 162.115 53.2C161.71 52.9227 161.08 52.784 160.227 52.784H159.763V50.944H160.227C161.742 50.944 162.499 50.4373 162.499 49.424C162.499 48.9653 162.36 48.608 162.083 48.352C161.816 48.096 161.427 47.968 160.915 47.968C160.414 47.968 160.024 48.1067 159.747 48.384C159.48 48.6507 159.326 48.992 159.283 49.408H157.091Z" fill="#C7C7C7"/>
<path d="M105.958 55.472C106.982 54.6187 107.798 53.9093 108.406 53.344C109.014 52.768 109.521 52.1707 109.926 51.552C110.332 50.9333 110.534 50.3253 110.534 49.728C110.534 49.184 110.406 48.7573 110.15 48.448C109.894 48.1387 109.5 47.984 108.966 47.984C108.433 47.984 108.022 48.1653 107.734 48.528C107.446 48.88 107.297 49.3653 107.286 49.984H105.11C105.153 48.704 105.532 47.7333 106.246 47.072C106.972 46.4107 107.889 46.08 108.998 46.08C110.214 46.08 111.148 46.4053 111.798 47.056C112.449 47.696 112.774 48.544 112.774 49.6C112.774 50.432 112.55 51.2267 112.102 51.984C111.654 52.7413 111.142 53.4027 110.566 53.968C109.99 54.5227 109.238 55.1947 108.31 55.984H113.03V57.84H105.126V56.176L105.958 55.472Z" fill="#C7C7C7"/>
<path d="M56.6776 48.4V46.336H60.5336V58H58.2296V48.4H56.6776Z" fill="white"/>
<defs>
<filter id="filter0_d_178_70" x="0" y="0" width="117" height="117" filterUnits="userSpaceOnUse" color-interpolation-filters="sRGB">
<feFlood flood-opacity="0" result="BackgroundImageFix"/>
<feColorMatrix in="SourceAlpha" type="matrix" values="0 0 0 0 0 0 0 0 0 0 0 0 0 0 0 0 0 0 127 0" result="hardAlpha"/>
<feMorphology radius="4" operator="dilate" in="SourceAlpha" result="effect1_dropShadow_178_70"/>
<feOffset dy="7"/>
<feGaussianBlur stdDeviation="18.5"/>
<feComposite in2="hardAlpha" operator="out"/>
<feColorMatrix type="matrix" values="0 0 0 0 0.901961 0 0 0 0 0.913725 0 0 0 0 1 0 0 0 1 0"/>
<feBlend mode="normal" in2="BackgroundImageFix" result="effect1_dropShadow_178_70"/>
<feBlend mode="normal" in="SourceGraphic" in2="effect1_dropShadow_178_70" result="shape"/>
</filter>
</defs>
</svg>
